<?xml version="1.0" encoding="UTF-8" standalone="no"?>
<!DOCTYPE svg PUBLIC "-//W3C//DTD SVG 20010904//EN"
              "http://www.w3.org/TR/2001/REC-SVG-20010904/DTD/svg10.dtd">

<svg xmlns="http://www.w3.org/2000/svg"
     width="2.73611in" height="2.38889in"
     viewBox="0 0 197 172">
  <path id="mystery"
        fill="none" stroke="black" stroke-width="1"
        d="M 25.02,57.00
           C 25.02,57.00 58.00,56.98 58.00,56.98
             58.00,56.98 57.99,33.00 57.99,33.00
             57.99,33.00 49.00,33.00 49.00,33.00
             49.00,33.00 49.00,49.02 49.00,49.02
             49.00,49.02 25.00,49.00 25.00,49.00
             25.00,49.00 25.02,57.00 25.02,57.00 Z
           M 16.99,48.99
           C 16.99,48.99 17.00,40.98 17.00,40.98
             17.00,40.98 24.98,41.00 24.98,41.00
             24.98,41.00 25.00,49.00 25.00,49.00
             25.00,49.00 16.99,48.99 16.99,48.99 Z
           M 17.00,56.98
           C 17.00,56.98 17.00,49.00 17.00,49.00
             17.00,49.00 9.00,49.02 9.00,49.02
             9.00,49.02 8.99,57.00 8.99,57.00
             8.99,57.00 17.00,56.98 17.00,56.98 Z
           M 8.99,57.00
           C 8.99,57.00 1.00,57.00 1.00,57.00
             1.00,57.00 0.99,64.99 0.99,64.99
             0.99,64.99 9.00,65.00 9.00,65.00
             9.00,65.00 8.99,57.00 8.99,57.00 Z
           M 9.01,73.99
           C 9.01,73.99 17.00,74.00 17.00,74.00
             17.00,74.00 17.00,65.01 17.00,65.01
             17.00,65.01 9.00,65.00 9.00,65.00
             9.00,65.00 9.01,73.99 9.01,73.99 Z
           M 25.00,74.00
           C 25.00,74.00 25.00,82.00 25.00,82.00
             25.00,82.00 17.00,82.00 17.00,82.00
             17.00,82.00 17.00,74.00 17.00,74.00
             17.00,74.00 25.00,74.00 25.00,74.00 Z
           M 25.00,74.00
           C 25.00,74.00 49.99,74.00 49.99,74.00
             49.99,74.00 50.00,65.00 50.00,65.00
             50.00,65.00 25.00,65.00 25.00,65.00
             25.00,65.00 25.00,74.00 25.00,74.00 Z
           M 50.00,74.00
           C 50.00,74.00 50.00,89.99 50.00,89.99
             50.00,89.99 58.00,90.00 58.00,90.00
             58.00,90.00 57.98,73.98 57.98,73.98
             57.98,73.98 50.00,74.00 50.00,74.00 Z
           M 66.00,107.00
           C 66.00,107.00 58.00,106.97 58.00,106.97
             58.00,106.97 58.00,90.00 58.00,90.00
             58.00,90.00 65.99,90.00 65.99,90.00
             65.99,90.00 66.00,107.00 66.00,107.00 Z
           M 74.00,155.00
           C 74.00,155.00 66.00,155.00 66.00,155.00
             66.00,155.00 66.00,107.00 66.00,107.00
             66.00,107.00 74.00,107.01 74.00,107.01
             74.00,107.01 74.00,155.00 74.00,155.00 Z
           M 57.00,163.00
           C 57.00,163.00 49.00,163.00 49.00,163.00
             49.00,163.00 49.01,172.00 49.01,172.00
             49.01,172.00 82.01,171.99 82.01,171.99
             82.01,171.99 82.00,164.00 82.00,164.00
             82.00,164.00 66.00,164.00 66.00,164.00
             66.00,164.00 65.99,155.00 65.99,155.00
             65.99,155.00 57.00,154.99 57.00,154.99
             57.00,154.99 57.00,163.00 57.00,163.00 Z
           M 82.02,155.00
           C 82.02,155.00 82.00,164.01 82.00,164.01
             82.00,164.01 91.01,164.01 91.01,164.01
             91.01,164.01 90.99,155.00 90.99,155.00
             90.99,155.00 82.02,155.00 82.02,155.00 Z
           M 99.00,155.00
           C 99.00,155.00 91.00,155.00 91.00,155.00
             91.00,155.00 90.99,147.01 90.99,147.01
             90.99,147.01 99.00,147.00 99.00,147.00
             99.00,147.00 99.00,155.00 99.00,155.00 Z
           M 99.02,139.00
           C 99.02,139.00 106.99,139.00 106.99,139.00
             106.99,139.00 106.99,146.99 106.99,146.99
             106.99,146.99 99.01,147.00 99.01,147.00
             99.01,147.00 99.02,139.00 99.02,139.00 Z
           M 107.00,131.00
           C 107.00,131.00 107.00,139.00 107.00,139.00
             107.00,139.00 114.99,139.00 114.99,139.00
             114.99,139.00 115.00,131.00 115.00,131.00
             115.00,131.00 107.00,131.00 107.00,131.00 Z
           M 115.00,131.01
           C 115.00,131.01 122.99,131.00 122.99,131.00
             122.99,131.00 123.01,106.04 123.00,105.99
             123.00,105.99 115.00,106.01 115.00,106.01
             115.00,106.01 115.00,131.01 115.00,131.01 Z
           M 123.01,105.99
           C 123.01,105.99 123.00,98.01 123.00,98.01
             123.00,98.01 131.99,98.00 131.99,98.00
             131.99,98.00 132.00,106.00 132.00,106.00
             132.00,106.00 123.01,105.99 123.01,105.99 Z
           M 140.00,82.00
           C 140.00,82.00 139.99,98.00 139.99,98.00
             139.99,98.00 132.00,98.00 132.00,98.00
             132.00,98.00 132.00,82.00 132.00,82.00
             132.00,82.00 140.00,82.00 140.00,82.00 Z
           M 140.00,82.00
           C 140.00,82.00 148.00,82.00 148.00,82.00
             148.00,82.00 147.99,74.00 147.99,74.00
             147.99,74.00 173.00,73.99 173.00,73.99
             173.00,73.99 172.99,65.01 172.99,65.01
             172.99,65.01 156.99,65.01 156.99,65.01
             156.99,65.01 156.98,57.99 156.98,57.99
             156.98,57.99 172.99,58.00 172.99,58.00
             172.99,58.00 172.99,49.00 172.99,49.00
             172.99,49.00 156.99,48.99 156.99,48.99
             156.99,48.99 156.99,33.01 156.99,33.01
             156.99,33.01 148.00,32.99 148.00,32.99
             148.00,32.99 148.00,65.00 148.00,65.00
             148.00,65.00 140.00,65.00 140.00,65.00
             140.00,65.00 140.00,82.00 140.00,82.00 Z
           M 172.99,73.99
           C 172.99,73.99 180.99,74.00 180.99,74.00
             180.99,74.00 181.00,80.99 181.00,80.99
             181.00,80.99 172.99,80.99 172.99,80.99
             172.99,80.99 172.99,73.99 172.99,73.99 Z
           M 188.99,74.00
           C 188.99,74.00 189.00,66.00 189.00,66.00
             189.00,66.00 181.00,66.00 181.00,66.00
             181.00,66.00 180.99,74.00 180.99,74.00
             180.99,74.00 188.99,74.00 188.99,74.00 Z
           M 188.99,66.00
           C 188.99,66.00 189.00,56.99 189.00,56.99
             189.00,56.99 196.99,56.99 196.99,56.99
             196.99,56.99 197.01,65.99 197.01,65.99
             197.01,65.99 188.99,66.00 188.99,66.00 Z
           M 181.00,48.99
           C 181.00,48.99 181.00,56.99 181.00,56.99
             181.00,56.99 189.00,56.99 189.00,56.99
             189.00,56.99 188.99,49.00 188.99,49.00
             188.99,49.00 181.00,48.99 181.00,48.99 Z
           M 172.99,48.99
           C 172.99,48.99 173.00,41.00 173.00,41.00
             173.00,41.00 181.00,41.00 181.00,41.00
             181.00,41.00 181.00,49.00 181.00,49.00
             181.00,49.00 172.99,48.99 172.99,48.99 Z
           M 140.00,33.00
           C 140.00,33.00 148.00,32.99 148.00,32.99
             148.00,32.99 148.00,16.00 148.00,16.00
             148.00,16.00 140.00,16.00 140.00,16.00
             140.00,16.00 140.00,33.00 140.00,33.00 Z
           M 132.00,15.99
           C 132.00,15.99 140.00,16.00 140.00,16.00
             140.00,16.00 140.00,8.00 140.00,8.00
             140.00,8.00 132.01,8.00 132.01,8.00
             132.01,8.00 132.00,15.99 132.00,15.99 Z
           M 132.01,7.99
           C 132.01,7.99 131.98,-0.01 131.98,-0.01
             131.98,-0.01 74.00,0.00 74.00,0.00
             74.00,0.00 74.00,8.00 74.00,8.00
             74.00,8.00 132.01,7.99 132.01,7.99 Z
           M 74.00,8.00
           C 74.00,8.00 66.00,8.00 66.00,8.00
             66.00,8.00 66.00,17.00 66.00,17.00
             66.00,17.00 74.01,17.00 74.01,17.00
             74.01,17.00 74.00,8.00 74.00,8.00 Z
           M 66.00,17.01
           C 66.00,17.01 58.00,17.00 58.00,17.00
             58.00,17.00 58.00,32.99 58.00,32.99
             58.00,32.99 66.00,33.00 66.00,33.00
             66.00,33.00 66.00,17.01 66.00,17.01 Z
           M 90.01,41.00
           C 90.01,41.00 90.00,24.98 90.00,24.98
             90.00,24.98 81.99,24.99 81.99,24.99
             81.99,24.99 82.00,16.00 82.00,16.00
             82.00,16.00 99.00,15.99 99.00,15.99
             99.00,15.99 98.99,24.99 98.99,24.99
             98.99,24.99 106.99,25.00 106.99,25.00
             106.99,25.00 107.00,41.00 107.00,41.00
             107.00,41.00 98.99,41.00 98.99,41.00
             98.99,41.00 99.01,49.00 99.01,49.00
             99.01,49.00 82.01,48.99 82.01,48.99
             82.01,48.99 82.00,41.00 82.00,41.00
             82.00,41.00 90.01,41.00 90.01,41.00 Z
           M 107.00,41.00
           C 107.00,41.00 107.00,49.00 107.00,49.00
             107.00,49.00 124.00,48.99 124.00,48.99
             124.00,48.99 123.99,40.99 123.99,40.99
             123.99,40.99 132.01,41.00 132.01,41.00
             132.01,41.00 132.00,24.99 132.00,24.99
             132.00,24.99 124.01,24.99 124.01,24.99
             124.01,24.99 124.01,16.00 124.01,16.00
             124.01,16.00 106.99,16.01 106.99,16.01
             106.99,16.01 107.02,25.02 107.02,25.02
             107.02,25.02 114.99,25.01 114.99,25.01
             114.99,25.01 115.00,41.00 115.01,41.00
             115.00,41.01 107.00,41.00 107.00,41.00 Z
           M 90.00,57.00
           C 90.00,57.00 107.00,57.00 107.00,57.00
             107.00,57.00 107.00,74.00 107.00,74.00
             107.00,74.00 90.00,74.00 90.00,74.00
             90.00,74.00 90.00,57.00 90.00,57.00 Z
           M 74.02,40.99
           C 74.02,40.99 82.01,41.00 82.01,41.00
             82.01,41.00 82.00,25.01 82.00,25.01
             82.00,25.01 74.01,25.01 74.01,25.01
             74.01,25.01 74.02,40.99 74.02,40.99 Z" />
</svg>
